<svg xmlns="http://www.w3.org/2000/svg" viewBox="0 0 320 64" fill="none">
  <defs>
    <linearGradient id="vy-red" x1="0%" y1="0%" x2="100%" y2="100%">
      <stop offset="0%" stop-color="#e53935"/>
      <stop offset="100%" stop-color="#ef5350"/>
    </linearGradient>
  </defs>

  <!-- Vyshyvanka embroidery pattern icon — diamond/rhombus motif -->
  <path d="M32 8 L52 32 L32 56 L12 32 Z" stroke="url(#vy-red)" stroke-width="2.5" fill="none"/>
  <path d="M32 18 L42 32 L32 46 L22 32 Z" stroke="url(#vy-red)" stroke-width="2" fill="url(#vy-red)" fill-opacity="0.12"/>
  <line x1="28" y1="28" x2="36" y2="36" stroke="url(#vy-red)" stroke-width="2" stroke-linecap="round"/>
  <line x1="36" y1="28" x2="28" y2="36" stroke="url(#vy-red)" stroke-width="2" stroke-linecap="round"/>
  <path d="M32 4 L35 8 L32 12 L29 8 Z" fill="url(#vy-red)"/>
  <path d="M32 52 L35 56 L32 60 L29 56 Z" fill="url(#vy-red)"/>
  <path d="M4 32 L8 29 L12 32 L8 35 Z" fill="url(#vy-red)"/>
  <path d="M52 32 L56 29 L60 32 L56 35 Z" fill="url(#vy-red)"/>
  <circle cx="22" cy="20" r="2" fill="url(#vy-red)" opacity="0.7"/>
  <circle cx="42" cy="20" r="2" fill="url(#vy-red)" opacity="0.7"/>
  <circle cx="22" cy="44" r="2" fill="url(#vy-red)" opacity="0.7"/>
  <circle cx="42" cy="44" r="2" fill="url(#vy-red)" opacity="0.7"/>
  <line x1="8" y1="32" x2="22" y2="32" stroke="url(#vy-red)" stroke-width="1.5" stroke-linecap="round" opacity="0.4"/>
  <line x1="42" y1="32" x2="56" y2="32" stroke="url(#vy-red)" stroke-width="1.5" stroke-linecap="round" opacity="0.4"/>
  <line x1="32" y1="8" x2="32" y2="18" stroke="url(#vy-red)" stroke-width="1.5" stroke-linecap="round" opacity="0.4"/>
  <line x1="32" y1="46" x2="32" y2="56" stroke="url(#vy-red)" stroke-width="1.5" stroke-linecap="round" opacity="0.4"/>

  <!-- Wordmark (light text for dark backgrounds) -->
  <text x="72" y="42" font-family="'Segoe UI', 'Helvetica Neue', Arial, sans-serif" font-size="30" font-weight="700" fill="#e0e0e0">
    Vyshy<tspan fill="#e53935">vanka</tspan>
  </text>
</svg>
